Coordinates
version=1
nRows=7
nColumns=63
inDegrees=yes

Units are S.I. units (second, meters, Newtons, ...)
If the header above contains a line with 'inDegrees', this indicates whether rotational values are in degrees (yes) or radians (no).

endheader
time	pelvis_tilt	pelvis_list	pelvis_rotation	pelvis_tx	pelvis_ty	pelvis_tz	hip_flexion_r	hip_adduction_r	hip_rotation_r	knee_angle_r	knee_angle_r_beta	ankle_angle_r	subtalar_angle_r	mtp_angle_r	hip_flexion_l	hip_adduction_l	hip_rotation_l	knee_angle_l	knee_angle_l_beta	ankle_angle_l	subtalar_angle_l	mtp_angle_l	L5_S1_Flex_Ext	L5_S1_Lat_Bending	L5_S1_axial_rotation	L4_L5_Flex_Ext	L4_L5_Lat_Bending	L4_L5_axial_rotation	L3_L4_Flex_Ext	L3_L4_Lat_Bending	L3_L4_axial_rotation	L2_L3_Flex_Ext	L2_L3_Lat_Bending	L2_L3_axial_rotation	L1_L2_Flex_Ext	L1_L2_Lat_Bending	L1_L2_axial_rotation	L1_T12_Flex_Ext	L1_T12_Lat_Bending	L1_T12_axial_rotation	Abs_r3	Abs_r2	Abs_r1	Abs_t1	Abs_t2	neck_flexion	neck_bending	neck_rotation	arm_flex_r	arm_add_r	arm_rot_r	elbow_flex_r	pro_sup_r	wrist_flex_r	wrist_dev_r	arm_flex_l	arm_add_l	arm_rot_l	elbow_flex_l	pro_sup_l	wrist_flex_l	wrist_dev_l
      0.00000000	      1.19534209	     -5.69002153	     91.63795487	      0.20293638	      0.69105327	      0.60966770	      4.09059036	      3.33377224	      3.76011514	      0.56797701	      0.00991307	     16.82305107	    -16.50684456	      0.00000000	      7.32433009	     -4.08215053	     -6.72583254	      4.61234741	      0.08050065	     26.50841120	     14.16110148	      0.00000000	     -0.13411920	      0.58485193	     -1.05417254	     -0.24907277	      0.77785307	     -1.12005832	     -0.22034444	      1.42200898	     -1.12005832	     -0.15328484	      1.42200898	     -0.92240097	     -0.12454309	      1.19263006	     -0.85651519	     -0.07663571	      0.90593564	     -0.79062940	     -0.95800005	      6.61596200	     -5.86299140	      0.00000000	      0.00000000	     18.01260881	     -9.88556163	      4.11053296	     46.92515708	    -80.11998156	     93.28673049	      4.61829367	     15.98091231	     -8.79086782	      1.13613157	     11.02354114	    -77.41521591	     54.19437420	      1.63677692	     56.70977779	     -5.94234153	      5.54098954
      0.01694915	      1.40809903	     -5.74759842	     91.64658006	      0.20332843	      0.69067038	      0.60670416	      3.96674338	      3.51980248	      4.37091634	      0.44309089	      0.00773339	     17.24408893	    -16.27916890	      0.00000000	      7.06841467	     -4.34304550	     -6.56635384	      4.53028388	      0.07906837	     26.99313093	     14.13147908	      0.00000000	     -0.09829048	      0.61829023	     -1.07431012	     -0.18253525	      0.82232600	     -1.14145450	     -0.16148143	      1.50331086	     -1.14145450	     -0.11233619	      1.50331086	     -0.94002136	     -0.09127254	      1.26081743	     -0.87287697	     -0.05616318	      0.95773156	     -0.80573259	     -0.70207908	      6.99422272	     -5.97499060	      0.00000000	      0.00000000	     19.05475910	    -10.16335427	      4.72389587	     46.10533656	    -80.46143354	     93.48569376	      4.59827270	     16.25839191	     -8.89641036	      1.67581595	     10.70224488	    -77.36964310	     54.39002941	      1.76865665	     56.85904570	     -5.93589274	      5.34428547
      0.03389831	      1.49146348	     -5.84160485	     91.27368540	      0.20373785	      0.69038562	      0.60438194	      3.93982518	      3.57534901	      5.16055398	      0.42078908	      0.00734415	     17.26441120	    -16.31114789	      0.00000000	      6.71744327	     -4.37668047	     -5.09292297	      4.13501239	      0.07216958	     26.84705084	     11.64265509	      0.00000000	     -0.06637024	      0.64276053	     -1.01204326	     -0.12325617	      0.85487150	     -1.07529596	     -0.10903966	      1.56280795	     -1.07529596	     -0.07585454	      1.56280795	     -0.88553785	     -0.06163140	      1.31071727	     -0.82228515	     -0.03792395	      0.99563606	     -0.75903244	     -0.47407597	      7.27103563	     -5.62868099	      0.00000000	      0.00000000	     19.90720268	    -10.26728212	      5.47036555	     44.95935913	    -80.64486271	     89.67837760	      4.39506026	     20.03800866	     -9.14128665	      1.96813356	     10.29601530	    -77.34121078	     56.20489124	      1.81587883	     57.26435953	     -5.81397631	      4.45352839
      0.05084746	      1.52908650	     -5.80493284	     91.33183214	      0.20350579	      0.69032780	      0.60265665	      3.75572824	      3.56207752	      5.23957858	      0.39050195	      0.00681554	     17.22106337	    -16.23925101	      0.00000000	      6.53332109	     -4.40548379	     -5.12781738	      4.13790856	      0.07222013	     26.92827087	     11.60314080	      0.00000000	     -0.05244099	      0.65576003	     -1.02454837	     -0.09738816	      0.87216084	     -1.08858264	     -0.08615530	      1.59441495	     -1.08858264	     -0.05993481	      1.59441495	     -0.89647982	     -0.04869670	      1.33722586	     -0.83244555	     -0.02996478	      1.01577229	     -0.76841128	     -0.37458075	      7.41808865	     -5.69823065	      0.00000000	      0.00000000	     20.12993407	    -10.23264060	      5.57417023	     44.70446333	    -80.88187598	     89.66280748	      4.41576011	     20.10591496	     -9.12788758	      2.14283649	     10.14831690	    -77.27070423	     56.31050579	      1.84601480	     57.31072161	     -5.84261751	      4.46216542
      0.06779661	      1.54689747	     -5.77730096	     91.34994526	      0.20354888	      0.69023872	      0.60141478	      3.60777636	      3.55872446	      5.22761145	      0.38615930	      0.00673975	     17.15695228	    -16.22400739	      0.00000000	      6.40038421	     -4.43695484	     -5.13439916	      4.13995396	      0.07225583	     26.91895527	     11.59386511	      0.00000000	     -0.04052409	      0.66143421	     -1.02462299	     -0.07525728	      0.87970750	     -1.08866192	     -0.06657702	      1.60821113	     -1.08866192	     -0.04631498	      1.60821113	     -0.89654511	     -0.03763067	      1.34879664	     -0.83250618	     -0.02315546	      1.02456159	     -0.76846724	     -0.28945949	      7.48227604	     -5.69864567	      0.00000000	      0.00000000	     20.23830341	    -10.17755108	      5.64197704	     44.56178972	    -81.03382331	     89.63122841	      4.43744571	     20.14819745	     -9.11625125	      2.24398946	     10.02962260	    -77.28756258	     56.41787109	      1.88284173	     57.35923784	     -5.88555430	      4.44874069
      0.08474576	      1.25898689	     -5.50206734	     91.40383858	      0.20458497	      0.69060041	      0.60045174	      3.20972497	      3.30388179	      5.13898649	      0.40388431	      0.00704911	     17.07731363	    -16.25074747	      0.00000000	      5.91085964	     -4.16794671	     -4.48934551	      3.85352518	      0.06725670	     26.50527256	     10.75557314	      0.00000000	     -0.06739270	      0.59957802	     -0.89351135	     -0.12515498	      0.79743876	     -0.94935580	     -0.11071946	      1.45781399	     -0.94935580	     -0.07702311	      1.45781399	     -0.78182243	     -0.06258086	      1.22265949	     -0.72597797	     -0.03850819	      0.92874635	     -0.67013351	     -0.48137929	      6.78254645	     -4.96944205	      0.00000000	      0.00000000	     19.90439501	     -9.33872070	      4.50680553	     36.00889359	    -81.14711416	     74.56382640	      4.37111811	     26.42399110	     -9.34944150	      1.93193557	     15.43792813	    -77.71623513	     68.08347927	      1.79949023	     55.15359864	     -5.48709601	      5.05543615
      0.10169492	      1.12437210	     -5.44683421	     91.43560495	      0.20463666	      0.69073402	      0.59965272	      3.07309917	      3.14630480	      5.24430830	      0.42385604	      0.00739768	     16.99425518	    -16.39030766	      0.00000000	      5.78348730	     -4.03164792	     -4.76146038	      3.81076048	      0.06651032	     26.34781188	     10.99869932	      0.00000000	     -0.06135729	      0.58138229	     -0.90686524	     -0.11394662	      0.77323845	     -0.96354432	     -0.10080389	      1.41357290	     -0.96354432	     -0.07012525	      1.41357290	     -0.79350709	     -0.05697638	      1.18555477	     -0.73682801	     -0.03505955	      0.90056117	     -0.68014893	     -0.43826898	      6.57671274	     -5.04371243	      0.00000000	      0.00000000	     19.44840801	     -8.89217553	      4.46771205	     35.64809015	    -81.03320608	     72.79707030	      4.33756672	     27.75203279	     -9.27358686	      1.91566571	     14.65835478	    -77.84449263	     67.73064918	      1.80857274	     54.61722410	     -5.58356246	      4.72673308
